<?xml version="1.0" encoding="utf-8"?>
<!-- Generator: Adobe Illustrator 24.0.1, SVG Export Plug-In . SVG Version: 6.00 Build 0)  -->
<svg version="1.1" id="Layer_1" xmlns="http://www.w3.org/2000/svg" xmlns:xlink="http://www.w3.org/1999/xlink" x="0px" y="0px"
	 viewBox="0 0 312.24 249.71" style="enable-background:new 0 0 312.24 249.71;" xml:space="preserve">
<style type="text/css">
	.st0{fill:none;stroke:#465560;stroke-width:11;stroke-linecap:round;stroke-linejoin:round;stroke-miterlimit:10;}
	.st1{fill:none;stroke:#465560;stroke-width:11;stroke-linecap:round;stroke-linejoin:bevel;stroke-miterlimit:10;}
	.st2{fill:none;stroke:#A1C7E3;stroke-width:11;stroke-linecap:round;stroke-linejoin:bevel;stroke-miterlimit:10;}
</style>
<g>
	<line class="st0" x1="156.24" y1="132.63" x2="156.24" y2="35.63"/>
	<path class="st0" d="M111.32,24.42c0,0,44.08-13.42,44.08,30.67C155.4,55.09,111.32,64.67,111.32,24.42z"/>
	<path class="st0" d="M200.32,7.42c0,0-44.08-13.42-44.08,30.67C156.24,38.09,200.32,47.67,200.32,7.42z"/>
</g>
<g>
	<path class="st0" d="M91.36,156.35v-29.28c0-6.22,5.04-11.26,11.26-11.26l0,0c6.22,0,11.26,5.04,11.26,11.26v11.26
		c15.77,0,27.03,24.78,27.03,38.3s0,40.55,0,40.55h-40.55V187.9L82.9,170.44c-12.61-12.63-19.7-29.74-19.7-47.59V89.34
		c0-5.29,4.29-9.57,9.57-9.57l0,0c5.29,0,9.57,4.29,9.57,9.57v39.98l9.01,4.51"/>
	<g>
		<path class="st0" d="M220.88,156.35v-29.28c0-6.22-5.04-11.26-11.26-11.26l0,0c-6.22,0-11.26,5.04-11.26,11.26v11.26
			c-15.77,0-27.03,24.78-27.03,38.3s0,40.55,0,40.55h40.55V187.9l17.46-17.46c12.62-12.62,19.71-29.73,19.71-47.58V89.34
			c0-5.29-4.29-9.57-9.57-9.57l0,0c-5.29,0-9.57,4.29-9.57,9.57v39.98l-9.01,4.51"/>
	</g>
</g>
<line class="st1" x1="29.97" y1="217.18" x2="282.27" y2="217.18"/>
<line class="st2" x1="33.07" y1="230.69" x2="51.09" y2="230.69"/>
<line class="st2" x1="57.85" y1="244.21" x2="71.36" y2="244.21"/>
<line class="st2" x1="229.05" y1="230.69" x2="242.56" y2="230.69"/>
<line class="st2" x1="247.07" y1="244.21" x2="276.35" y2="244.21"/>
<g>
	<g>
		<path class="st2" d="M267.6,40.78c10.77,18.79,16.93,40.56,16.93,63.76c0,29.28-9.8,56.27-26.3,77.87"/>
		<path class="st2" d="M57,186.17c-18.3-22.19-29.28-50.63-29.28-81.63c0-24.16,6.67-46.76,18.28-66.06"/>
	</g>
	<g>
		<path class="st2" d="M286.88,28.4c12.63,22.04,19.85,47.57,19.85,74.79c0,34.35-11.5,66.01-30.85,91.35"/>
		<path class="st2" d="M39.85,198.95C18.39,172.92,5.5,139.57,5.5,103.2c0-28.34,7.83-54.86,21.44-77.5"/>
	</g>
</g>
</svg>
