<?xml version="1.0" encoding="utf-8"?>
<!-- Generator: Adobe Illustrator 24.0.0, SVG Export Plug-In . SVG Version: 6.00 Build 0)  -->
<svg version="1.1" id="Capa_1" xmlns="http://www.w3.org/2000/svg" xmlns:xlink="http://www.w3.org/1999/xlink" x="0px" y="0px"
	 viewBox="0 0 512 512" style="enable-background:new 0 0 512 512;" xml:space="preserve">
<style type="text/css">
	.st0{fill:#455560;}
	.st1{fill:#A1C7E3;}
</style>
<g>
	<g>
		<path class="st0" d="M256,0h-42.7C125,0.1,53.4,71.7,53.3,160v17.9l-52,94.2c-0.9,1.6-1.3,3.4-1.3,5.2c0,0.6,0,1.2,0,1.8
			c0.5,17.2,14.8,30.7,32,30.2c7.8,0.4,15.2,3.2,21.3,8V352c0,0.8,0,1.6,0,2.4c0.7,22.9,19.8,40.9,42.7,40.2h64c0.6,0,1.2,0,1.8,0
			c17.2-0.5,30.7-14.8,30.2-32v-64h-21.3v64c0.1,0.6,0.1,1.3,0,1.9c-0.5,5.4-5.3,9.3-10.7,8.8H96c-0.9,0.1-1.7,0.1-2.6,0
			C82.4,372.6,74,363.1,74.7,352v-39.8c0-3.1-1.3-6-3.6-8C60.4,294.4,46.5,288.6,32,288c0,0-0.1,0-0.1,0c-5.1,0.5-9.8-3.2-10.3-8.3
			l51.8-93.9c0.9-1.6,1.3-3.4,1.3-5.2V160c0.1-76.5,62.1-138.6,138.7-138.7h42.5c0.6-0.1,1.3-0.1,2,0c5.4,0.5,9.3,5.3,8.8,10.7v53.3
			H288V32c0-0.6,0-1.2,0-1.8C287.5,13,273.2-0.5,256,0z"/>
	</g>
</g>
<g>
	<g>
		<path class="st0" d="M437.3,320H320v21.3h117.3c0.6-0.1,1.3-0.1,1.9,0c5.4,0.5,9.3,5.3,8.8,10.7v20.2
			c-1.5,6.4-11.8,43.8-42.6,43.8c-5.9,0-10.7,4.6-10.7,10.5v64.2H192v-21.3c0-5.9-4.8-10.7-10.7-10.7h0c-5.9,0-10.7,4.8-10.7,10.7
			v32c0,5.9,4.8,10.7,10.7,10.7h224l0,0c5.9,0,10.7-4.8,10.7-10.7v-64.9c33.3-6.3,49.2-41.5,53.1-60.9c0.1-0.7,0.2-1.4,0.2-2.1V352
			c0-0.6,0-1.2,0-1.8C468.8,333,454.5,319.5,437.3,320z"/>
	</g>
</g>
<g>
	<g>
		<path class="st1" d="M501.3,128h-26.9c-1.1-3.2-2.4-6.3-3.9-9.3l19-19c4.2-4.2,4.2-10.9,0-15.1l-30.2-30.2
			c-4.2-4.2-10.9-4.2-15.1,0l-19,19c-3-1.4-6.1-2.7-9.3-3.9V42.7c0-5.9-4.8-10.7-10.7-10.7h-42.7c-5.9,0-10.7,4.8-10.7,10.7v26.9
			c-2.1,0.8-4.2,1.6-6.3,2.5c-5.7,2.5-8,9.4-4.8,14.8l0.3,0.5c2.7,4.6,8.3,6.3,13.2,4.2c3.5-1.5,7.2-2.8,10.9-3.8
			c4.7-1.2,8-5.5,8-10.3V53.3h21.3v24.1c0,4.9,3.3,9.1,8,10.3c6.7,1.7,13.2,4.4,19.2,7.9c4.2,2.5,9.5,1.8,13-1.6L451.9,77L467,92.1
			l-17.1,17.1c-3.4,3.4-4.1,8.8-1.7,13c3.5,6,6.2,12.5,8,19.2c1.2,4.7,5.5,8,10.3,8h24.1v21.3h-24.1c-4.9,0-9.1,3.3-10.3,8
			c-1.7,6.7-4.4,13.2-8,19.2c-2.5,4.2-1.8,9.5,1.7,13l17.1,17.1L451.9,243l-17.1-17.1c-3.4-3.4-8.8-4.1-13-1.6
			c-6,3.5-12.5,6.2-19.2,7.9c-4.7,1.2-8,5.5-8,10.3v24.1h-21.3v-24.1c0-4.9-3.3-9.1-8-10.3c-6.7-1.7-13.2-4.4-19.2-7.9
			c-4.2-2.5-9.5-1.8-13,1.6L316.1,243L301,227.9l17.1-17.1c3.4-3.4,4.1-8.8,1.7-13c-3.5-6-6.2-12.5-8-19.2c-1.2-4.7-5.5-8-10.3-8
			h-24.1c-5.9,0-10.7,4.8-10.7,10.7v0c0,5.9,4.8,10.7,10.7,10.7h16.2c1.1,3.2,2.4,6.3,3.9,9.3l-19,19c-4.2,4.2-4.2,10.9,0,15.1
			l30.2,30.2c4.2,4.2,10.9,4.2,15.1,0l19-19c3,1.4,6.1,2.7,9.3,3.9v26.9c0,5.9,4.8,10.7,10.7,10.7h42.7l0,0
			c5.9,0,10.7-4.8,10.7-10.7v-26.9c3.2-1.1,6.3-2.4,9.3-3.9l19,19c4.2,4.2,10.9,4.2,15.1,0l30.2-30.2c4.2-4.2,4.2-10.9,0-15.1
			l-19-19c1.5-3,2.7-6.1,3.9-9.3h26.9c5.9,0,10.7-4.8,10.7-10.7v-42.7C512,132.8,507.2,128,501.3,128z"/>
	</g>
</g>
<g>
	<g>
		<path class="st1" d="M384,117.3c-23.6,0-42.7,19.1-42.7,42.7s19.1,42.7,42.7,42.7c23.6,0,42.7-19.1,42.7-42.7
			S407.6,117.3,384,117.3z M384,181.3c-11.8,0-21.3-9.6-21.3-21.3s9.6-21.3,21.3-21.3s21.3,9.6,21.3,21.3
			C405.3,171.8,395.8,181.3,384,181.3z"/>
	</g>
</g>
<g>
	<g>
		<path class="st1" d="M160,181.3L160,181.3l-32,0v0c0-5.9-4.8-10.7-10.7-10.7h0c-5.9,0-10.7,4.8-10.7,10.7v0c0,0.3,0,0.6,0,0.9
			c0.2,11.5,9.8,20.7,21.3,20.4h32c0.3,0,0.6,0,0.9,0c11.5-0.2,20.7-9.8,20.4-21.3v0c0-5.9-4.8-10.7-10.7-10.7h0
			C164.8,170.7,160,175.5,160,181.3z"/>
	</g>
</g>
<g>
	<g>
		<path class="st0" d="M298.7,298.7c-17.7,0-32,14.3-32,32s14.3,32,32,32s32-14.3,32-32S316.4,298.7,298.7,298.7z M298.7,341.3
			c-5.9,0-10.7-4.8-10.7-10.7s4.8-10.7,10.7-10.7s10.7,4.8,10.7,10.7C309.3,336.6,304.6,341.3,298.7,341.3z"/>
	</g>
</g>
<g>
	<g>
		<path class="st0" d="M181.3,245.3c-17.7,0-32,14.3-32,32c0,17.7,14.3,32,32,32s32-14.3,32-32C213.3,259.7,199,245.3,181.3,245.3z
			 M181.3,288c-5.9,0-10.7-4.8-10.7-10.7s4.8-10.7,10.7-10.7c5.9,0,10.7,4.8,10.7,10.7C192,283.2,187.2,288,181.3,288z"/>
	</g>
</g>
<g>
	<g>
		<path class="st0" d="M277.3,74.7c-17.7,0-32,14.3-32,32s14.3,32,32,32s32-14.3,32-32S295,74.7,277.3,74.7z M277.3,117.3
			c-5.9,0-10.7-4.8-10.7-10.7S271.5,96,277.3,96s10.7,4.8,10.7,10.7S283.2,117.3,277.3,117.3z"/>
	</g>
</g>
<g>
	<g>
		<path class="st1" d="M234.7,170.7L234.7,170.7c5.9,0,10.7,4.8,10.7,10.7v0c0,5.9-4.8,10.7-10.7,10.7h0c-5.9,0-10.7-4.8-10.7-10.7
			v0C224,175.5,228.8,170.7,234.7,170.7z"/>
	</g>
</g>
<g>
	<g>
		<path class="st1" d="M234.7,213.3L234.7,213.3c5.9,0,10.7,4.8,10.7,10.7v0c0,5.9-4.8,10.7-10.7,10.7h0c-5.9,0-10.7-4.8-10.7-10.7
			v0C224,218.1,228.8,213.3,234.7,213.3z"/>
	</g>
</g>
<g>
	<g>
		<path class="st1" d="M181.3,416L181.3,416c5.9,0,10.7,4.8,10.7,10.7l0,0c0,5.9-4.8,10.7-10.7,10.7h0c-5.9,0-10.7-4.8-10.7-10.7
			l0,0C170.7,420.8,175.5,416,181.3,416z"/>
	</g>
</g>
</svg>
